<?xml version="1.0" encoding="utf-8"?>
<!-- Generator: Adobe Illustrator 19.0.0, SVG Export Plug-In . SVG Version: 6.00 Build 0)  -->
<svg version="1.1" id="Layer_1" xmlns="http://www.w3.org/2000/svg" xmlns:xlink="http://www.w3.org/1999/xlink" x="0px" y="0px"
	 viewBox="-139 153.8 679.3 255.2" enable-background="new -139 153.8 679.3 255.2" xml:space="preserve">

<rect id="XMLID_9_" x="-187.3" y="210.8" fill="none" width="679.3" height="164"/>
<text transform="matrix(1 0 0 1 -187.3335 316.3993)" font-family="'Nexa-Light'" font-size="150px">  </text>
<text transform="matrix(1 0 0 1 -136.5002 316.7326)" fill="#FFFFFF" font-family="'Dekar'" font-size="157px">C</text>
<text transform="matrix(1 0 0 1 100.1665 316.3993)" enable-background="new    "><tspan x="0" y="0" fill="#FFFFFF" font-family="'Dekar'" font-size="150px">VID-  </tspan><tspan x="303" y="0" fill="#7E6969" font-family="'Dekar'" font-size="150px">19</tspan></text>
<g id="XMLID_17_">
	<g id="XMLID_7_">
		<path id="XMLID_2_" fill="none" stroke="#FFFFFF" stroke-width="3" stroke-miterlimit="10" stroke-dasharray="15,5" d="
			M-4.7,288.1c0-36.3,34.1-65.8,76.3-65.8"/>
		<g id="XMLID_6_">
			<circle id="XMLID_1_" fill="none" stroke="#FFFFFF" stroke-width="3" stroke-miterlimit="10" cx="41.5" cy="264.6" r="51.5"/>
			<path id="XMLID_3_" fill="none" stroke="#FFFFFF" stroke-width="3" stroke-miterlimit="10" stroke-dasharray="15,5" d="M2,230.8
				c0,21.3,49.1,77,67.8,77"/>
			<path id="XMLID_4_" fill="none" stroke="#FFFFFF" stroke-width="3" stroke-miterlimit="10" stroke-dasharray="15,5" d="
				M2.2,298.8c0-18.1,44.9-36.3,89.3-36.3"/>
		</g>
	</g>
	<g id="XMLID_16_">
		<circle id="XMLID_5_" fill="none" stroke="#FFC256" stroke-miterlimit="10" cx="41.3" cy="264.3" r="55.9"/>
	</g>
</g>
<path id="XMLID_11_" fill="none" stroke="#FFFFFF" stroke-width="3" stroke-miterlimit="10" stroke-dasharray="15,5" d="M93,262.3
	c0-1,87.3-2,173.8-2"/>
<path id="XMLID_10_" fill="#FF0D31" stroke="#FFFFFF" stroke-miterlimit="10" d="M275.9,241.8c0.6-4.5-14.9-3.7-15.9-1.3
	s6,21.2,7.4,21.3C268.7,262.1,275.2,246.9,275.9,241.8z"/>
<rect id="XMLID_12_" x="-98" y="338.5" fill="none" width="386.7" height="100"/>
<text id="XMLID_13_" transform="matrix(1 0 0 1 -120 370.1467)" fill="#FFFFFF" font-family="'Dekar'" font-size="45px">contact-tracing app</text>
</svg>
