<?xml version="1.0" encoding="utf-8"?>
<!-- Generator: Adobe Illustrator 19.0.0, SVG Export Plug-In . SVG Version: 6.00 Build 0)  -->
<svg version="1.1" id="Layer_1" xmlns="http://www.w3.org/2000/svg" xmlns:xlink="http://www.w3.org/1999/xlink" x="0px" y="0px"
	 viewBox="0 0 80.3 96.7" enable-background="new 0 0 80.3 96.7" xml:space="preserve">
<g>
	<path opacity="0.2" fill="#130200" d="M73.3,29.3c0.1-4.9-0.3-7.4-0.3-7.4s-4-1.2-15.4-4.1c-12-3.1-17.6-4.2-17.6-4.2
		s-5.6,1.1-17.6,4.2C11,20.8,7,21.9,7,21.9s-0.4,2.5-0.3,7.3c0,0.8,0,1.7,0,2.7c-0.1,5.2,0.4,14.7,3.6,28.1
		C14.5,77.2,28.1,88.2,40,92.3c11.9-4.1,25.5-15.1,29.7-32.3c3.2-13.3,3.7-22.8,3.6-28C73.3,31,73.3,30.1,73.3,29.3z M54.8,72.6
		c3.2-3.9,5.9-8.7,7.3-14.4c2.8-11.6,3.4-20,3.4-24.8c0,0,0,0-0.1,0c0-1,0.1-1.9,0.1-2.7c0,0,0,0-0.1,0c0-0.4,0-0.7,0-1.1
		c1.5,0.4,2.7,0.7,3.6,1c0,0,0,0.1,0,0.1c-0.2,5.3-1,13-3.4,23C63.7,61.5,59.6,67.8,54.8,72.6z M11,30.6C11,30.6,11,30.6,11,30.6
		c2.3-0.7,6.3-1.8,12.5-3.3c9.2-2.4,14.6-3.6,16.5-4v1V27v51.5v2.7v1.2C30.2,78.6,18.1,69,14.4,53.7C12,43.7,11.2,35.9,11,30.6z"/>
	<linearGradient id="SVGID_1_" gradientUnits="userSpaceOnUse" x1="72.0701" y1="85.0734" x2="19.0701" y2="-14.26">
		<stop  offset="0" style="stop-color:#130A47"/>
		<stop  offset="0.1931" style="stop-color:#331241"/>
		<stop  offset="0.6131" style="stop-color:#822832"/>
		<stop  offset="1" style="stop-color:#D13D23"/>
	</linearGradient>
	<path fill="url(#SVGID_1_)" d="M55.6,21c-8.1-2.1-13.3-3.3-15.6-3.8V74c8.7-3.8,18.8-12.4,22.1-25.7c2.8-11.6,3.4-20,3.4-24.8
		C63.1,22.9,59.9,22.1,55.6,21z"/>
	<path fill="#FFFFFF" d="M57.6,13.4C45.5,10.3,40,9.2,40,9.2s-5.6,1.1-17.6,4.2C11,16.3,7,17.5,7,17.5S5.1,29,10.3,50.2
		C14.5,67.4,28.1,78.4,40,82.5c11.9-4.1,25.5-15.1,29.7-32.3C74.8,29,73,17.5,73,17.5S69,16.3,57.6,13.4z M40,78
		c-9.8-3.8-21.9-13.4-25.6-28.7c-3.5-14.4-3.6-24.1-3.4-28.5c2.3-0.6,6.3-1.7,12.5-3.3c9.2-2.4,14.6-3.6,16.5-4
		c2,0.4,7.4,1.6,16.5,4c6.1,1.6,10.1,2.6,12.5,3.3c0.2,4.4,0.1,14.1-3.4,28.5C61.8,64.6,49.8,74.1,40,78z"/>
</g>
</svg>
